PathFileType	4	(x/y/z)	S04_PSF_T02.trc
DataRate	CameraRate	NumFrames	NumMarkers	Units	OrigDataRate	OrigDataStartFrame	OrigNumFrames
240	240	7	51	mm	240	323	430
Frame#	Time	Sternum			R.Acromium			L.Acromium			Top.Head			R.ASIS			L.ASIS			R.PSIS			L.PSIS			R.Great.Tro			L.Great.Tro			R.Iliac.Crest			L.Iliac.Crest			V.Sacral			R.Thigh.Upper.Post			R.Thigh.Lower.Ant			R.Thigh.Lower.Post			R.Thigh.Upper.Ant			R.Knee.Lat			R.Knee.Med			R.Shank.Upper.Post			R.Shank.Lower.Ant			R.Shank.Lower.Post			R.Shank.Upper.Ant			R.Ankle.Lat			R.Ankle.Med			R.Heel.Upper			R.Heel.Med			R.Heel.Lat			R.Toe.Lat			R.Toe.Med			R.Toe.Tip			L.Thigh.Upper.Post			L.Thigh.Lower.Ant			L.Thigh.Lower.Post			L.Thigh.Upper.Ant			L.Knee.Lat			L.Knee.Med			L.Shank.Upper.Post			L.Shank.Lower.Ant			L.Shank.Lower.Post			L.Shank.Upper.Ant			L.Ankle.Lat			L.Ankle.Med			L.Heel.Upper			L.Heel.Med			L.Heel.Lat			L.Toe.Lat			L.Toe.Med			L.Toe.Tip			Cervical.Spine			Back			
		X1	Y1	Z1	X2	Y2	Z2	X3	Y3	Z3	X4	Y4	Z4	X5	Y5	Z5	X6	Y6	Z6	X7	Y7	Z7	X8	Y8	Z8	X9	Y9	Z9	X10	Y10	Z10	X11	Y11	Z11	X12	Y12	Z12	X13	Y13	Z13	X14	Y14	Z14	X15	Y15	Z15	X16	Y16	Z16	X17	Y17	Z17	X18	Y18	Z18	X19	Y19	Z19	X20	Y20	Z20	X21	Y21	Z21	X22	Y22	Z22	X23	Y23	Z23	X24	Y24	Z24	X25	Y25	Z25	X26	Y26	Z26	X27	Y27	Z27	X28	Y28	Z28	X29	Y29	Z29	X30	Y30	Z30	X31	Y31	Z31	X32	Y32	Z32	X33	Y33	Z33	X34	Y34	Z34	X35	Y35	Z35	X36	Y36	Z36	X37	Y37	Z37	X38	Y38	Z38	X39	Y39	Z39	X40	Y40	Z40	X41	Y41	Z41	X42	Y42	Z42	X43	Y43	Z43	X44	Y44	Z44	X45	Y45	Z45	X46	Y46	Z46	X47	Y47	Z47	X48	Y48	Z48	X49	Y49	Z49	X50	Y50	Z50	X51	Y51	Z51	

323	1.3417	222.38	1271.5	302.79	108.84	1502	482.06	80.051	1481.5	132.35	139.88	1826	286.77	190.4	982.11	449.66	201.61	1009.8	201	-17.372	1022.6	341.7	-7.4328	1030.2	260.94	96.962	900.61	504.57	95.586	922.85	129.64	104.83	1080.3	487.95	95.92	1086	153.77	-34.26	985.21	298.33	121.46	641.34	500.77	207.92	565.78	478.87	131.19	551.47	487.74	204.18	675.72	495.47	148.32	485.26	481.73	143.7	483.54	351.18	-60.022	388.45	473.41	-74.34	284.99	437.15	-113.06	343.06	460.01	-23.075	333.16	459.83	-194.51	263.64	440.27	-162.08	246.7	354.98	-249.79	292.34	376.78	-264.6	267.12	343.95	-278.32	271.62	408.6	-196.38	130.41	471.76	-156.22	98.917	362.1	-110.64	61.2	417.3	129.45	682.4	149.1	229.28	607.19	163.49	157.29	599.19	167.99	197.71	688.91	141.93	216.14	514.57	183.76	212.76	509.96	306.78	137.91	330.42	187.77	210.73	247.05	198.27	146.43	253.63	199.5	202.57	322.55	186.4	185.26	98.338	222.31	191.74	110.94	314.36	112.86	70.107	268.38	119.39	46.18	303.37	116.48	41.76	241.36	300.54	42.059	203.41	331.17	50.961	319.42	388.01	62.09	270.03	45.734	1547.7	314.37	-36.892	1289	304.04
324	1.3458	227.45	1272.3	303	113.53	1502.9	481.95	85.616	1482.4	132.19	145.3	1826.8	286.68	195.58	983.19	449.52	206.6	1010.5	200.82	-12.269	1023.5	341.79	-2.3671	1031.1	261.02	102.52	901.68	504.64	100.25	923.59	129.66	109.85	1081.3	487.89	101.21	1086.9	153.63	-29.182	986.12	298.42	129.95	642.59	500.93	217.09	567.94	478.73	140.56	552.82	487.85	212.26	677.81	495.4	158.39	486.87	481.71	153.6	485.12	351.16	-49.229	388.64	473.4	-62.699	284.94	437.66	-101.87	342.77	460.14	-11.861	333.55	460.12	-182.68	262.57	440.58	-150.11	245.59	355.42	-238.47	290.14	376.91	-252.91	264.44	344.28	-266.64	269.25	408.92	-182.65	129.79	473.11	-142.31	97.938	363.61	-96.117	61.369	419.04	132.5	683.02	149.14	231.82	607.07	163.51	159.76	599.63	167.93	200.82	689.05	141.98	217.89	514.51	183.78	214.42	509.86	306.78	138.8	330.67	187.91	211.35	247.02	198.31	147.09	253.84	199.66	203.45	322.56	186.45	185.37	98.438	222.48	191.87	110.96	314.5	112.88	70.206	268.47	119.41	46.221	303.41	116.52	41.899	241.4	300.57	42.055	203.39	331.24	50.721	319.45	388.08	61.796	270.03	50.913	1548.6	314.1	-31.793	1289.9	303.58
325	1.35	232.51	1273.1	303.21	118.21	1503.8	481.83	91.173	1483.2	132.04	150.72	1827.6	286.61	200.75	984.28	449.39	211.57	1011.2	200.64	-7.1688	1024.4	341.89	2.6889	1032	261.11	108.08	902.78	504.73	104.87	924.34	129.69	114.87	1082.3	487.84	106.46	1087.8	153.5	-24.109	987.05	298.52	138.4	643.9	501.1	226.19	570.14	478.58	149.86	554.24	487.97	220.28	679.94	495.34	168.38	488.52	481.69	163.39	486.75	351.15	-38.424	388.67	473.41	-50.942	284.74	438.18	-90.62	342.28	460.28	-0.58479	333.82	460.41	-170.7	261.2	440.92	-137.99	244.27	355.87	-227.03	287.61	377.1	-241.08	261.45	344.67	-254.81	266.5	409.3	-168.62	128.87	474.39	-128.1	96.794	365.02	-81.25	61.396	420.62	135.49	683.66	149.19	234.28	606.94	163.53	162.17	600.08	167.87	203.88	689.18	142.04	219.56	514.44	183.8	216.02	509.77	306.78	139.64	330.91	188.04	211.93	247	198.33	147.7	254.04	199.82	204.27	322.57	186.49	185.47	98.537	222.63	192	110.98	314.63	112.91	70.307	268.55	119.43	46.265	303.45	116.56	42.037	241.44	300.6	42.049	203.37	331.32	50.5	319.47	388.15	61.521	270.03	56.082	1549.5	313.84	-26.701	1290.8	303.11
326	1.3542	237.56	1274	303.42	122.88	1504.7	481.72	96.723	1484.1	131.89	156.14	1828.4	286.55	205.91	985.37	449.27	216.52	1011.9	200.46	-2.0714	1025.3	342.02	7.7345	1032.9	261.22	113.63	903.9	504.82	109.44	925.08	129.73	119.87	1083.3	487.79	111.68	1088.6	153.38	-19.042	987.98	298.65	146.79	645.25	501.3	235.21	572.38	478.42	159.11	555.7	488.12	228.25	682.09	495.28	178.3	490.22	481.66	173.09	488.42	351.15	-27.609	388.54	473.43	-39.072	284.39	438.7	-79.312	341.59	460.44	10.751	333.99	460.7	-158.56	259.54	441.28	-125.73	242.74	356.31	-215.46	284.76	377.35	-229.09	258.16	345.1	-242.82	263.39	409.73	-154.31	127.67	475.59	-113.6	95.499	366.32	-66.057	61.291	422.06	138.43	684.3	149.25	236.67	606.82	163.54	164.5	600.54	167.81	206.86	689.32	142.09	221.16	514.39	183.81	217.58	509.68	306.78	140.43	331.16	188.17	212.46	247	198.36	148.27	254.26	199.97	205.04	322.6	186.53	185.57	98.633	222.78	192.12	111.01	314.76	112.93	70.408	268.63	119.45	46.312	303.48	116.6	42.173	241.49	300.63	42.042	203.35	331.39	50.295	319.49	388.21	61.266	270.02	61.242	1550.4	313.58	-21.614	1291.8	302.65
327	1.3583	242.61	1274.8	303.64	127.54	1505.6	481.61	102.27	1485	131.76	161.57	1829.3	286.51	211.06	986.47	449.14	221.45	1012.6	200.27	3.0219	1026.3	342.17	12.769	1033.9	261.35	119.19	905.03	504.93	113.97	925.82	129.78	124.87	1084.3	487.75	116.85	1089.5	153.27	-13.982	988.92	298.81	155.15	646.64	501.52	244.16	574.64	478.26	168.29	557.21	488.28	236.17	684.26	495.21	188.13	491.94	481.64	182.69	490.11	351.16	-16.784	388.27	473.48	-27.094	283.9	439.22	-67.944	340.71	460.61	22.145	334.06	461	-146.27	257.6	441.66	-113.32	241.02	356.76	-203.77	281.61	377.66	-216.95	254.59	345.59	-230.68	259.95	410.2	-139.73	126.2	476.71	-98.813	94.068	367.51	-50.555	61.063	423.35	141.31	684.93	149.33	238.99	606.69	163.54	166.77	601.01	167.76	209.79	689.45	142.14	222.69	514.34	183.82	219.09	509.6	306.77	141.16	331.42	188.31	212.95	247.01	198.37	148.8	254.47	200.12	205.76	322.65	186.56	185.67	98.728	222.92	192.24	111.05	314.87	112.95	70.511	268.71	119.46	46.361	303.52	116.64	42.308	241.53	300.66	42.033	203.34	331.45	50.105	319.51	388.27	61.027	270.01	66.394	1551.3	313.33	-16.531	1292.7	302.2
328	1.3625	247.65	1275.7	303.86	132.18	1506.5	481.5	107.8	1485.9	131.62	166.99	1830.1	286.49	216.21	987.56	449.02	226.36	1013.3	200.09	8.1103	1027.2	342.33	17.79	1034.8	261.5	124.75	906.16	505.06	118.46	926.55	129.84	129.86	1085.3	487.71	121.97	1090.4	153.17	-8.9284	989.85	298.98	163.45	648.06	501.76	253.02	576.93	478.08	177.4	558.75	488.45	244.03	686.44	495.13	197.89	493.7	481.62	192.18	491.83	351.17	-5.95	387.84	473.55	-15.01	283.28	439.74	-56.518	339.65	460.81	33.593	334.02	461.29	-133.83	255.41	442.07	-100.76	239.12	357.2	-191.93	278.18	378.02	-204.65	250.75	346.11	-218.37	256.18	410.71	-124.9	124.49	477.75	-83.758	92.515	368.6	-34.764	60.725	424.5	144.14	685.57	149.42	241.24	606.57	163.55	168.98	601.49	167.72	212.66	689.59	142.2	224.15	514.3	183.82	220.59	509.53	306.78	141.85	331.68	188.44	213.4	247.03	198.38	149.29	254.7	200.27	206.43	322.7	186.59	185.76	98.822	223.05	192.35	111.09	314.98	112.98	70.614	268.79	119.47	46.412	303.55	116.68	42.44	241.57	300.68	42.022	203.33	331.52	49.93	319.53	388.32	60.804	270	71.54	1552.1	313.08	-11.451	1293.6	301.74
329	1.3667	252.68	1276.5	304.08	136.82	1507.4	481.39	113.34	1486.8	131.5	172.41	1830.9	286.49	221.36	988.65	448.9	231.25	1014	199.9	13.193	1028.1	342.52	22.799	1035.7	261.66	130.32	907.31	505.19	122.91	927.26	129.92	134.85	1086.2	487.68	127.05	1091.2	153.08	-3.8829	990.76	299.19	171.71	649.5	502.01	261.81	579.22	477.9	186.44	560.33	488.65	251.84	688.63	495.05	207.55	495.47	481.6	201.58	493.57	351.2	4.8946	387.26	473.66	-2.8239	282.53	440.25	-45.033	338.4	461.02	45.093	333.89	461.59	-121.25	252.98	442.5	-88.069	237.04	357.64	-179.97	274.48	378.43	-192.2	246.65	346.68	-205.9	252.11	411.26	-109.83	122.56	478.71	-68.447	90.854	369.58	-18.703	60.289	425.51	146.93	686.21	149.53	243.42	606.44	163.55	171.12	601.97	167.69	215.47	689.73	142.26	225.56	514.26	183.83	222.07	509.48	306.78	142.49	331.95	188.59	213.82	247.06	198.38	149.75	254.93	200.42	207.06	322.77	186.61	185.85	98.915	223.18	192.45	111.14	315.09	113	70.718	268.86	119.47	46.464	303.58	116.71	42.571	241.62	300.71	42.011	203.33	331.58	49.768	319.54	388.38	60.597	269.99	76.68	1553	312.84	-6.3731	1294.5	301.29
